<?xml version="1.0" standalone="no"?>
<!DOCTYPE svg PUBLIC "-//W3C//DTD SVG 20010904//EN"
 "http://www.w3.org/TR/2001/REC-SVG-20010904/DTD/svg10.dtd">
<svg version="1.0" xmlns="http://www.w3.org/2000/svg"
 width="500.000000pt" height="500.000000pt" viewBox="0 0 500.000000 500.000000"
 preserveAspectRatio="xMidYMid meet">
<metadata>
Created by potrace 1.14, written by Peter Selinger 2001-2017
</metadata>
<g transform="translate(0.000000,500.000000) scale(0.100000,-0.100000)"
fill="#000000" stroke="none">
<path d="M0 2500 l0 -2500 2500 0 2500 0 0 2500 0 2500 -2500 0 -2500 0 0
-2500z m2877 1826 c325 -69 603 -202 848 -408 333 -278 547 -642 642 -1087 25
-116 27 -144 27 -361 0 -217 -2 -245 -27 -361 -95 -445 -309 -809 -642 -1087
-247 -207 -521 -338 -854 -409 -116 -25 -144 -27 -361 -27 -217 0 -245 2 -361
27 -333 71 -607 202 -854 409 -333 278 -547 642 -642 1087 -25 116 -27 144
-27 361 0 217 2 245 27 361 175 821 800 1404 1627 1519 36 5 157 7 270 5 173
-3 224 -8 327 -29z"/>
<path d="M2332 4249 c-693 -67 -1295 -547 -1517 -1211 -187 -560 -85 -1183
271 -1650 75 -98 221 -245 319 -323 647 -509 1563 -509 2210 0 98 78 244 225
319 323 483 634 483 1530 0 2164 -75 98 -221 245 -319 323 -362 285 -821 419
-1283 374z"/>
</g>
</svg>
