<?xml version="1.0" standalone="no"?>
<!DOCTYPE svg PUBLIC "-//W3C//DTD SVG 20010904//EN"
 "http://www.w3.org/TR/2001/REC-SVG-20010904/DTD/svg10.dtd">
<svg version="1.0" xmlns="http://www.w3.org/2000/svg"
 width="2160.000000pt" height="2160.000000pt" viewBox="0 0 2160.000000 2160.000000"
 preserveAspectRatio="xMidYMid meet">
<metadata>
Created by potrace 1.14, written by Peter Selinger 2001-2017
</metadata>
<g transform="translate(0.000000,2160.000000) scale(0.100000,-0.100000)"
fill="#000000" stroke="none">
<path d="M10547 20954 c-1 -1 -78 -5 -172 -9 -93 -3 -190 -8 -215 -10 -25 -2
-88 -6 -140 -9 -52 -4 -106 -8 -120 -10 -14 -3 -61 -7 -106 -11 -44 -3 -92 -8
-105 -10 -13 -2 -51 -7 -84 -10 -33 -3 -73 -8 -90 -10 -16 -3 -47 -7 -67 -10
-40 -5 -92 -13 -145 -20 -18 -3 -50 -7 -70 -10 -21 -3 -64 -10 -96 -16 -32 -5
-70 -12 -85 -14 -15 -2 -40 -7 -57 -10 -16 -3 -68 -13 -115 -21 -47 -9 -121
-24 -165 -34 -44 -11 -96 -22 -115 -25 -19 -3 -62 -13 -95 -21 -33 -9 -69 -17
-80 -20 -42 -8 -231 -56 -260 -65 -16 -5 -79 -23 -140 -40 -210 -59 -315 -91
-535 -167 -1130 -388 -2181 -977 -3135 -1757 -71 -59 -144 -118 -160 -133 -17
-15 -64 -56 -105 -92 -467 -408 -929 -902 -1358 -1455 -183 -236 -582 -823
-635 -935 -4 -8 -16 -28 -27 -45 -11 -16 -23 -37 -27 -45 -4 -8 -23 -42 -43
-75 -20 -33 -58 -100 -85 -150 -26 -49 -52 -95 -56 -100 -11 -15 -239 -469
-271 -540 -15 -33 -43 -96 -63 -140 -50 -109 -169 -397 -206 -497 -110 -295
-160 -439 -219 -638 -28 -91 -54 -178 -60 -195 -10 -34 -59 -210 -65 -239 -2
-10 -16 -63 -30 -117 -14 -55 -37 -152 -51 -217 -14 -64 -28 -126 -30 -137 -3
-11 -7 -31 -10 -45 -2 -14 -11 -56 -19 -95 -8 -38 -21 -113 -30 -165 -9 -52
-18 -104 -19 -115 -16 -89 -22 -131 -42 -275 -8 -63 -17 -126 -19 -140 -2 -14
-7 -52 -10 -85 -3 -33 -8 -76 -10 -95 -10 -86 -18 -178 -30 -320 -5 -70 -15
-247 -21 -375 -5 -111 -4 -709 1 -795 1 -30 6 -113 10 -185 4 -71 8 -146 10
-165 2 -19 6 -73 10 -120 3 -47 8 -96 10 -110 2 -14 6 -56 10 -95 3 -38 8 -81
10 -95 3 -23 7 -50 20 -160 13 -102 31 -224 51 -340 8 -47 17 -101 20 -120 4
-27 52 -268 69 -350 2 -8 11 -49 20 -90 8 -41 20 -93 26 -115 6 -22 15 -58 21
-79 5 -22 11 -47 13 -57 9 -46 71 -271 122 -438 127 -424 266 -796 473 -1266
26 -59 145 -308 192 -400 80 -157 260 -484 294 -535 13 -19 24 -38 24 -42 0
-4 12 -26 28 -50 15 -24 32 -52 39 -63 86 -142 356 -551 372 -565 4 -3 15 -18
26 -35 33 -53 180 -248 338 -450 4 -5 16 -20 26 -33 11 -13 34 -42 53 -64 18
-23 49 -60 68 -83 19 -23 58 -67 85 -100 48 -56 105 -120 154 -174 12 -14 55
-62 95 -105 148 -165 531 -541 716 -702 24 -21 54 -48 66 -59 99 -93 368 -309
589 -474 310 -233 575 -412 850 -575 72 -42 137 -81 145 -86 72 -44 214 -122
345 -192 108 -58 492 -248 499 -248 2 0 37 -15 78 -34 227 -105 559 -238 803
-322 381 -132 893 -278 1150 -329 22 -5 42 -9 45 -10 10 -3 116 -25 140 -30
57 -11 177 -34 205 -39 90 -18 344 -58 449 -71 22 -3 51 -7 65 -9 14 -3 55 -8
91 -11 36 -4 72 -8 81 -10 8 -2 53 -6 100 -10 46 -4 93 -9 103 -11 11 -2 67
-6 125 -9 58 -4 117 -8 131 -11 147 -25 1042 -24 1380 1 30 2 91 7 135 10 91
7 162 13 220 20 22 2 60 7 85 10 25 3 65 7 90 10 25 3 65 8 90 11 25 2 56 7
70 9 14 2 48 7 75 11 28 3 57 7 65 9 15 3 81 13 135 21 56 9 167 29 218 40 16
3 38 7 50 9 31 3 217 42 312 65 44 10 91 21 105 24 56 12 109 25 185 46 44 11
89 23 99 25 167 38 825 250 991 320 17 7 95 39 175 70 380 152 670 290 1125
535 216 116 760 458 931 584 23 17 53 38 65 48 120 84 424 317 532 407 89 75
235 199 248 211 9 8 36 33 60 54 235 208 643 614 812 810 10 11 42 48 71 81
29 33 72 83 95 110 24 28 53 61 65 75 108 122 415 527 572 755 390 568 731
1191 994 1815 17 41 35 84 40 95 20 45 131 337 165 435 21 58 41 114 45 125
23 60 139 439 189 620 55 195 167 698 196 875 3 19 10 60 15 90 13 74 18 107
25 160 3 25 10 71 16 102 5 32 12 77 14 100 4 44 14 123 20 168 2 14 7 59 10
100 4 41 8 82 10 90 1 8 6 60 10 115 4 55 9 114 11 130 25 199 25 1318 0 1475
-3 14 -7 66 -11 115 -3 50 -8 108 -11 130 -2 22 -6 60 -9 85 -5 58 -15 145
-21 190 -3 19 -9 67 -14 105 -5 39 -12 88 -15 110 -3 22 -10 67 -15 100 -5 33
-12 78 -15 100 -4 22 -13 72 -20 110 -8 39 -16 81 -19 95 -15 91 -40 217 -58
290 -11 47 -21 94 -24 105 -2 11 -6 32 -10 47 -3 15 -6 31 -6 35 -1 8 -22 89
-72 278 -64 240 -166 564 -254 810 -45 123 -127 339 -142 370 -5 11 -34 81
-66 155 -31 74 -66 158 -79 185 -12 28 -37 82 -55 120 -127 281 -411 808 -565
1050 -18 28 -59 92 -91 143 -278 440 -670 952 -1046 1366 -206 226 -639 649
-863 841 -44 38 -82 72 -85 75 -4 5 -297 241 -390 314 -140 110 -409 300 -611
432 -156 102 -466 294 -475 294 -2 0 -21 11 -42 23 -20 13 -66 40 -102 60 -36
19 -94 51 -130 71 -72 40 -511 259 -605 301 -540 245 -1123 450 -1690 595 -88
22 -169 42 -180 44 -11 2 -60 13 -108 25 -49 12 -103 23 -120 26 -18 3 -59 12
-92 20 -33 7 -80 16 -105 20 -24 4 -47 8 -50 10 -3 2 -30 6 -60 10 -30 4 -57
8 -60 10 -3 2 -26 6 -50 10 -47 6 -81 12 -127 20 -64 10 -313 44 -371 50 -35
4 -71 8 -81 10 -10 2 -58 6 -107 10 -49 4 -98 9 -108 11 -11 2 -69 6 -130 9
-61 4 -122 8 -136 10 -72 11 -882 28 -893 19z"/>
</g>
</svg>
