<?xml version="1.0" standalone="no"?>
<!DOCTYPE svg PUBLIC "-//W3C//DTD SVG 20010904//EN"
 "http://www.w3.org/TR/2001/REC-SVG-20010904/DTD/svg10.dtd">
<svg version="1.0" xmlns="http://www.w3.org/2000/svg"
 width="371.000000pt" height="371.000000pt" viewBox="0 0 371.000000 371.000000"
 preserveAspectRatio="xMidYMid meet">
<metadata>
Created by potrace 1.14, written by Peter Selinger 2001-2017
</metadata>
<g transform="translate(0.000000,371.000000) scale(0.100000,-0.100000)"
fill="#000000" stroke="none">
<path d="M2463 3283 c-7 -3 -13 -12 -13 -22 0 -24 -65 -129 -99 -160 -38 -35
-75 -65 -81 -67 -3 0 -16 -5 -30 -11 -28 -13 -60 -25 -75 -29 -28 -7 -74 -16
-105 -20 -54 -8 -321 -10 -326 -2 -2 4 -26 7 -52 7 -26 0 -69 3 -97 6 -27 4
-68 8 -90 10 -22 2 -40 4 -40 5 0 2 -20 4 -45 6 -25 2 -74 7 -110 10 -78 8
-423 8 -465 0 -16 -3 -41 -8 -55 -10 -57 -11 -74 -16 -128 -43 -76 -36 -160
-123 -200 -205 -114 -236 -107 -546 21 -925 19 -56 32 -104 29 -107 -3 -4 0
-6 6 -6 7 0 11 -3 11 -7 -1 -5 4 -24 12 -43 7 -19 12 -38 11 -42 -1 -5 2 -8 8
-8 5 0 10 -6 10 -13 0 -7 15 -45 34 -84 19 -39 32 -74 29 -77 -4 -3 -1 -6 5
-6 7 0 11 -3 10 -7 -1 -9 13 -46 21 -53 6 -5 44 -81 45 -90 2 -13 116 -217
179 -320 83 -136 297 -456 326 -487 12 -12 21 -26 21 -31 0 -4 9 -18 21 -30
23 -26 44 -20 29 7 -5 10 -6 21 -3 25 3 3 1 6 -6 6 -7 0 -9 5 -6 10 3 6 2 10
-4 10 -9 0 -27 40 -22 49 2 2 -1 7 -6 10 -9 7 -26 51 -50 126 -8 28 -18 57
-21 65 -24 68 -33 196 -16 238 7 17 10 32 7 32 -3 0 2 9 12 20 10 11 15 20 10
20 -4 0 10 14 31 31 43 35 121 72 134 64 5 -3 11 -1 15 4 3 6 21 9 41 7 19 -1
37 0 39 4 9 15 272 -2 408 -26 45 -8 89 -15 97 -15 8 -1 71 -10 139 -21 384
-60 604 -61 791 -2 355 111 476 458 329 939 -29 93 -67 192 -119 307 -11 26
-20 51 -20 54 1 4 -2 10 -7 13 -4 3 -34 59 -67 124 -32 64 -61 117 -65 117 -4
0 -8 6 -8 13 0 6 -33 65 -74 130 -104 165 -118 187 -169 257 -25 34 -49 70
-55 78 -5 9 -14 21 -20 28 -5 6 -30 39 -55 72 -47 64 -57 72 -77 65z"/>
</g>
</svg>
